<mxfile host="app.diagrams.net" modified="2023-06-06T02:36:08.270Z" agent="Mozilla/5.0 (Macintosh; Intel Mac OS X 10_15_7) AppleWebKit/537.36 (KHTML, like Gecko) Chrome/113.0.0.0 Safari/537.36" version="21.3.7" etag="r1Ow7OfL0SGN4tPL65s-" type="github">
  <diagram name="第 1 页" id="sSxAkIa4_TF64Hw3xKEw">
    <mxGraphModel>
      <root>
        <mxCell id="0" />
        <mxCell id="1" parent="0" />
      </root>
    </mxGraphModel>
  </diagram>
</mxfile>
